<?xml version="1.0" encoding="UTF-8" standalone="no"?>
<!-- Generator: Adobe Illustrator 16.0.0, SVG Export Plug-In . SVG Version: 6.00 Build 0)  -->

<svg
   xmlns:dc="http://purl.org/dc/elements/1.1/"
   xmlns:cc="http://creativecommons.org/ns#"
   xmlns:rdf="http://www.w3.org/1999/02/22-rdf-syntax-ns#"
   xmlns:svg="http://www.w3.org/2000/svg"
   xmlns="http://www.w3.org/2000/svg"
   xmlns:sodipodi="http://sodipodi.sourceforge.net/DTD/sodipodi-0.dtd"
   xmlns:inkscape="http://www.inkscape.org/namespaces/inkscape"
   version="1.1"
   id="Capa_1"
   x="0px"
   y="0px"
   width="512px"
   height="512px"
   viewBox="0 0 612 612"
   style="enable-background:new 0 0 612 612;"
   xml:space="preserve"
   inkscape:version="0.91 r13725"
   sodipodi:docname="back-button-gb2.svg"><metadata
     id="metadata44"><rdf:RDF><cc:Work
         rdf:about=""><dc:format>image/svg+xml</dc:format><dc:type
           rdf:resource="http://purl.org/dc/dcmitype/StillImage" /><dc:title></dc:title></cc:Work></rdf:RDF></metadata><defs
     id="defs42" /><sodipodi:namedview
     pagecolor="#ffffff"
     bordercolor="#666666"
     borderopacity="1"
     objecttolerance="10"
     gridtolerance="10"
     guidetolerance="10"
     inkscape:pageopacity="0"
     inkscape:pageshadow="2"
     inkscape:window-width="1920"
     inkscape:window-height="1001"
     id="namedview40"
     showgrid="false"
     inkscape:zoom="2.6074563"
     inkscape:cx="256"
     inkscape:cy="256"
     inkscape:window-x="-9"
     inkscape:window-y="-9"
     inkscape:window-maximized="1"
     inkscape:current-layer="Capa_1" /><g
     id="g3"><g
       id="Rectangle_46_copy_16_1_"><g
         id="g6"><path
           d="M312.162,172.445l-19.612-19.556L138.979,306l19.612,19.557L292.55,459.111l19.612-19.557L192.084,319.825H459v-27.665     H192.084L312.162,172.445z M181.569,309.353L178.203,306l3.366-3.352V309.353z M306,0C137.004,0,0,137.004,0,306     c0,168.995,137.004,306,306,306c168.995,0,306-137.005,306-306C612,137.004,474.995,0,306,0z M306,584.182     C152.36,584.182,27.818,459.64,27.818,306S152.36,27.818,306,27.818S584.182,152.36,584.182,306S459.64,584.182,306,584.182z"
           fill="#32b000"
           id="path8" /></g></g></g><g
     id="g10" /><g
     id="g12" /><g
     id="g14" /><g
     id="g16" /><g
     id="g18" /><g
     id="g20" /><g
     id="g22" /><g
     id="g24" /><g
     id="g26" /><g
     id="g28" /><g
     id="g30" /><g
     id="g32" /><g
     id="g34" /><g
     id="g36" /><g
     id="g38" /><path
     style="fill:#c8ab37;stroke:none;stroke-width:1px;stroke-linecap:butt;stroke-linejoin:miter;stroke-opacity:1;fill-opacity:0"
     d="M 243.42069,488.24071 C 192.51296,485.2802 145.18697,466.55882 106.50564,434.07934 51.37266,387.78597 20.973457,319.19307 23.691653,247.21749 25.30758,204.42909 38.080588,164.32222 61.43287,128.71119 93.231651,80.219678 141.94281,45.228542 197.59058,30.903762 258.32705,15.269058 322.19376,24.479581 375.6475,56.582198 c 23.27471,13.97805 45.03864,33.029262 62.02665,54.295522 27.17012,34.01255 44.14552,74.59902 49.24482,117.73927 1.27304,10.77013 1.68823,20.01952 1.44616,32.21531 -0.30126,15.17782 -1.50377,26.50001 -4.31758,40.65264 -19.17103,96.42372 -97.43122,170.64613 -194.69093,184.64602 -13.91614,2.0031 -32.83126,2.87188 -45.93593,2.10975 z m -32.1401,-170.50906 -50.12398,-49.95757 111.50714,-0.0192 111.50714,-0.0192 0,-11.69723 0,-11.69722 -111.50659,0 -111.50659,0 50.0474,-50.0485 50.0474,-50.04851 -8.27586,-8.27586 -8.27586,-8.27586 -64.36097,64.17297 -64.36096,64.17298 64.39207,64.13007 64.39206,64.13007 8.3208,-8.30463 8.32079,-8.30464 -50.12399,-49.95757 z"
     id="path4180"
     inkscape:connector-curvature="0"
     transform="scale(1.1953125,1.1953125)" /><rect
     style="opacity:1;fill-opacity:1;stroke:#000000;stroke-width:0;stroke-opacity:1;fill:#32b000;stroke-miterlimit:4;stroke-dasharray:none"
     id="rect4184"
     width="15.586329"
     height="18.795271"
     x="171.44943"
     y="294.77274" /><path
     style="fill:#ffffff;stroke:none;stroke-width:1px;stroke-linecap:butt;stroke-linejoin:miter;stroke-opacity:1"
     d="M 243.42069,488.24071 C 192.51296,485.2802 145.18697,466.55882 106.50564,434.07934 51.37266,387.78597 20.973457,319.19307 23.691653,247.21749 25.30758,204.42909 38.080588,164.32222 61.43287,128.71119 93.231651,80.219678 141.94281,45.228542 197.59058,30.903762 258.32705,15.269058 322.19376,24.479581 375.6475,56.582198 c 23.27471,13.97805 45.03864,33.029262 62.02665,54.295522 27.17012,34.01255 44.14552,74.59902 49.24482,117.73927 1.27304,10.77013 1.68823,20.01952 1.44616,32.21531 -0.30126,15.17782 -1.50377,26.50001 -4.31758,40.65264 -19.17103,96.42372 -97.43122,170.64613 -194.69093,184.64602 -13.91614,2.0031 -32.83126,2.87188 -45.93593,2.10975 z m -32.1401,-170.50906 -50.12398,-49.95757 111.50714,-0.0192 111.50714,-0.0192 0,-11.69723 0,-11.69722 -111.50659,0 -111.50659,0 50.0474,-50.0485 50.0474,-50.04851 -8.27586,-8.27586 -8.27586,-8.27586 -64.36097,64.17297 -64.36096,64.17298 64.39207,64.13007 64.39206,64.13007 8.3208,-8.30463 8.32079,-8.30464 -50.12399,-49.95757 z"
     id="path4194"
     inkscape:connector-curvature="0"
     transform="scale(1.1953125,1.1953125)" /></svg>